<svg xmlns="http://www.w3.org/2000/svg" width="1024" height="1024" viewBox="0 0 1024 1024"><defs><linearGradient id="g" x1=".12" y1="0" x2=".88" y2="1"><stop offset="0" stop-color="#27395A"/><stop offset=".5" stop-color="#152238"/><stop offset="1" stop-color="#060B14"/></linearGradient><radialGradient id="top" cx=".3" cy=".1" r=".8"><stop offset="0" stop-color="#fff" stop-opacity=".16"/><stop offset="1" stop-color="#fff" stop-opacity="0"/></radialGradient><radialGradient id="warm" cx=".78" cy=".2" r=".55"><stop offset="0" stop-color="#F0C165" stop-opacity=".24"/><stop offset="1" stop-color="#F0C165" stop-opacity="0"/></radialGradient><radialGradient id="vig" cx=".5" cy=".52" r=".72"><stop offset=".55" stop-color="#000" stop-opacity="0"/><stop offset="1" stop-color="#000" stop-opacity=".42"/></radialGradient><linearGradient id="pgL" x1="0" y1="0" x2=".9" y2="1"><stop offset="0" stop-color="#FFFFFF"/><stop offset="1" stop-color="#DCE5F1"/></linearGradient><linearGradient id="pgR" x1=".1" y1="0" x2="1" y2="1"><stop offset="0" stop-color="#E4EBF5"/><stop offset="1" stop-color="#B9C6D9"/></linearGradient><linearGradient id="gut" x1="0" y1="0" x2="0" y2="1"><stop offset="0" stop-color="#8494AC" stop-opacity=".15"/><stop offset=".5" stop-color="#46566E" stop-opacity=".75"/><stop offset="1" stop-color="#8494AC" stop-opacity=".15"/></linearGradient><linearGradient id="mt" x1="0" y1="0" x2=".85" y2="1"><stop offset="0" stop-color="#FFF3D0"/><stop offset=".38" stop-color="#F2CE6E"/><stop offset=".72" stop-color="#D9A93A"/><stop offset="1" stop-color="#A87A14"/></linearGradient><radialGradient id="bl" cx=".5" cy=".5" r=".5"><stop offset="0" stop-color="#FFE9A8" stop-opacity=".70"/><stop offset=".45" stop-color="#FFD173" stop-opacity=".20"/><stop offset="1" stop-color="#FFD173" stop-opacity="0"/></radialGradient><filter id="cast" x="-40%" y="-40%" width="180%" height="190%"><feDropShadow dx="0" dy="20" stdDeviation="24" flood-color="#000" flood-opacity=".45"/></filter><filter id="lift" x="-50%" y="-50%" width="200%" height="200%"><feDropShadow dx="0" dy="4" stdDeviation="10" flood-color="#F0C165" flood-opacity=".55"/></filter><clipPath id="round"><rect width="1024" height="1024" rx="225"/></clipPath></defs><rect width="1024" height="1024" fill="url(#g)"/><rect width="1024" height="1024" fill="url(#top)"/><rect width="1024" height="1024" fill="url(#warm)"/><rect width="1024" height="1024" fill="url(#vig)"/><path d="M 806 116 C 820.72 193.28 820.72 193.28 898 208 C 820.72 222.72 820.72 222.72 806 300 C 791.28 222.72 791.28 222.72 714 208 C 791.28 193.28 791.28 193.28 806 116 Z" fill="url(#mt)" opacity="1.0"/><path d="M 908 246 C 915.36 284.64 915.36 284.64 954 292 C 915.36 299.36 915.36 299.36 908 338 C 900.64 299.36 900.64 299.36 862 292 C 900.64 284.64 900.64 284.64 908 246 Z" fill="url(#mt)" opacity="0.82"/><g filter="url(#cast)"><path d="M 512 458 C 420 414 286 398 164 402 L 164 574 C 286 570 420 586 512 630 Z" fill="#6E7F99" opacity=".55"/><path d="M 512 458 C 604 414 738 398 860 402 L 860 574 C 738 570 604 586 512 630 Z" fill="#5A6B85" opacity=".55"/><path d="M 512 436 C 420 392 286 376 164 380 L 164 552 C 286 548 420 564 512 608 Z" fill="url(#pgL)"/><path d="M 512 436 C 604 392 738 376 860 380 L 860 552 C 738 548 604 564 512 608 Z" fill="url(#pgR)"/><path d="M 512 436 L 512 608" stroke="url(#gut)" stroke-width="26" fill="none" opacity=".9"/></g><ellipse cx="404" cy="716" rx="240" ry="104" fill="url(#bl)"/><rect x="286" y="692" width="236" height="50" rx="25" fill="url(#mt)" filter="url(#lift)"/><rect x="548" y="692" width="190" height="50" rx="25" fill="#9FB2CC" opacity=".38"/><ellipse cx="342" cy="792" rx="150" ry="86" fill="url(#bl)"/><rect x="286" y="768" width="128" height="50" rx="25" fill="url(#mt)" filter="url(#lift)"/><rect x="440" y="768" width="150" height="50" rx="25" fill="#9FB2CC" opacity=".38"/></svg>